<svg width="207" height="22" fill="none" xmlns="http://www.w3.org/2000/svg"><path fill-rule="evenodd" clip-rule="evenodd" d="M43.011 2.239a10.748 10.748 0 00-1.148-.679c-1.7-.88-3.67-1.32-5.91-1.32h-8.85v21h8.85c2.24 0 4.21-.44 5.91-1.32.416-.213.81-.447 1.181-.701l-2.043-2.003a8.083 8.083 0 01-.728.424c-1.26.66-2.76.99-4.5.99h-5.67V2.85h5.67c1.74 0 3.24.33 4.5.99.235.121.46.251.675.39l2.063-1.991zm2.842 13.991a9.597 9.597 0 01-.627.926l-2.11-2.069a7.606 7.606 0 001.06-2.847H40.03v-3h4.148a7.412 7.412 0 00-1.097-2.9l2.122-2.047c.234.303.45.622.65.957.722 1.189 1.172 2.519 1.351 3.99h3.826v3h-3.826c-.179 1.471-.63 2.801-1.351 3.99zM69.9 2.346c-.406-.288-.84-.55-1.302-.786-1.7-.88-3.67-1.32-5.91-1.32h-8.85v21h8.85c2.24 0 4.21-.44 5.91-1.32.475-.243.92-.513 1.336-.81l-2.04-2a7.994 7.994 0 01-.886.53c-1.26.66-2.76.99-4.5.99h-5.67V2.85h5.67c1.74 0 3.24.33 4.5.99.293.15.57.315.832.494l2.06-1.988zm2.688 13.884a9.67 9.67 0 01-.514.777l-2.123-2.081.027-.046c.467-.8.778-1.68.933-2.64H67.03v-3h3.883a7.412 7.412 0 00-.996-2.741L72.05 4.44c.191.258.37.528.538.809.722 1.189 1.172 2.519 1.351 3.99h4.09v3h-4.09c-.178 1.471-.629 2.801-1.351 3.99zM9.51.24L0 21.24h3.09l2.307-5.25h11.166l2.307 5.25h3.15l-9.54-21H9.51zm5.998 13.35L10.98 3.285 6.452 13.59h9.056zM98.77.24h-8.19v21h3v-6.36h5.19c1.84 0 3.41-.29 4.71-.87 1.3-.6 2.3-1.44 3-2.52.7-1.1 1.05-2.41 1.05-3.93s-.35-2.83-1.05-3.93c-.7-1.1-1.7-1.94-3-2.52-1.3-.58-2.87-.87-4.71-.87zm-5.19 12.03h5.1c1.92 0 3.37-.41 4.35-1.23 1-.82 1.5-1.98 1.5-3.48s-.5-2.66-1.5-3.48c-.98-.82-2.43-1.23-4.35-1.23h-5.1v9.42zM131.947.24h-3v9.03h-12.06V.24h-3v21h3v-9.36h12.06v9.36h3v-21zm13.246 20.43c1.38.54 2.87.81 4.47.81 1.6 0 3.07-.26 4.41-.78 1.36-.54 2.54-1.29 3.54-2.25 1.02-.98 1.8-2.12 2.34-3.42.56-1.3.84-2.73.84-4.29s-.28-2.99-.84-4.29a9.726 9.726 0 00-2.34-3.39c-1-.98-2.18-1.73-3.54-2.25-1.34-.54-2.81-.81-4.41-.81-1.62 0-3.11.27-4.47.81-1.36.54-2.54 1.3-3.54 2.28-1 .96-1.78 2.09-2.34 3.39-.56 1.3-.84 2.72-.84 4.26 0 1.54.28 2.96.84 4.26.56 1.3 1.34 2.44 2.34 3.42 1 .96 2.18 1.71 3.54 2.25zm7.68-2.46c-.98.4-2.05.6-3.21.6-1.18 0-2.27-.2-3.27-.6a7.99 7.99 0 01-2.58-1.68c-.74-.74-1.32-1.6-1.74-2.58-.4-.98-.6-2.05-.6-3.21 0-1.16.2-2.23.6-3.21.42-.98 1-1.83 1.74-2.55.74-.74 1.6-1.31 2.58-1.71 1-.4 2.09-.6 3.27-.6 1.16 0 2.23.2 3.21.6 1 .4 1.86.97 2.58 1.71.74.72 1.31 1.57 1.71 2.55.42.98.63 2.05.63 3.21 0 1.16-.21 2.23-.63 3.21-.4.98-.97 1.84-1.71 2.58-.72.72-1.58 1.28-2.58 1.68zm18.332-15.36v18.39h2.97V2.85h7.2V.24h-17.37v2.61h7.2zm20.105 17.82c1.38.54 2.87.81 4.47.81 1.6 0 3.07-.26 4.41-.78 1.36-.54 2.54-1.29 3.54-2.25 1.02-.98 1.8-2.12 2.34-3.42.56-1.3.84-2.73.84-4.29s-.28-2.99-.84-4.29a9.726 9.726 0 00-2.34-3.39c-1-.98-2.18-1.73-3.54-2.25-1.34-.54-2.81-.81-4.41-.81-1.62 0-3.11.27-4.47.81-1.36.54-2.54 1.3-3.54 2.28-1 .96-1.78 2.09-2.34 3.39-.56 1.3-.84 2.72-.84 4.26 0 1.54.28 2.96.84 4.26.56 1.3 1.34 2.44 2.34 3.42 1 .96 2.18 1.71 3.54 2.25zm7.68-2.46c-.98.4-2.05.6-3.21.6-1.18 0-2.27-.2-3.27-.6a7.99 7.99 0 01-2.58-1.68c-.74-.74-1.32-1.6-1.74-2.58-.4-.98-.6-2.05-.6-3.21 0-1.16.2-2.23.6-3.21.42-.98 1-1.83 1.74-2.55.74-.74 1.6-1.31 2.58-1.71 1-.4 2.09-.6 3.27-.6 1.16 0 2.23.2 3.21.6 1 .4 1.86.97 2.58 1.71.74.72 1.31 1.57 1.71 2.55.42.98.63 2.05.63 3.21 0 1.16-.21 2.23-.63 3.21-.4.98-.97 1.84-1.71 2.58-.72.72-1.58 1.28-2.58 1.68z" fill="#F48737"/></svg>